<?xml version="1.0" encoding="UTF-8"?>
<!DOCTYPE svg PUBLIC "-//W3C//DTD SVG 1.1//EN" "http://www.w3.org/Graphics/SVG/1.1/DTD/svg11.dtd">
<!-- Creator: CorelDRAW -->
<svg xmlns="http://www.w3.org/2000/svg" xml:space="preserve" width="600px" height="600px" style="shape-rendering:geometricPrecision; text-rendering:geometricPrecision; image-rendering:optimizeQuality; fill-rule:evenodd; clip-rule:evenodd"
viewBox="0 0 600 600"
 xmlns:xlink="http://www.w3.org/1999/xlink">
 <defs>
  <style type="text/css">
   <![CDATA[
    .fil22 {fill:#28166F}
    .fil0 {fill:#28166F;fill-rule:nonzero}
    .fil9 {fill:url(#id0)}
    .fil4 {fill:url(#id1)}
    .fil5 {fill:url(#id2)}
    .fil6 {fill:url(#id3)}
    .fil3 {fill:url(#id4)}
    .fil8 {fill:url(#id5)}
    .fil7 {fill:url(#id6)}
    .fil2 {fill:url(#id7)}
    .fil1 {fill:url(#id8)}
    .fil12 {fill:url(#id9)}
    .fil14 {fill:url(#id10)}
    .fil11 {fill:url(#id11)}
    .fil13 {fill:url(#id12)}
    .fil10 {fill:url(#id13)}
    .fil15 {fill:url(#id14)}
    .fil21 {fill:url(#id15)}
    .fil17 {fill:url(#id16)}
    .fil20 {fill:url(#id17)}
    .fil18 {fill:url(#id18)}
    .fil16 {fill:url(#id19)}
    .fil19 {fill:url(#id20)}
   ]]>
  </style>
  <linearGradient id="id0" gradientUnits="userSpaceOnUse" x1="299.724" y1="124.916" x2="299.724" y2="220.889">
   <stop offset="0" style="stop-color:#84C225"/>
   <stop offset="1" style="stop-color:#00923F"/>
  </linearGradient>
  <linearGradient id="id1" gradientUnits="userSpaceOnUse" x1="301.13" y1="268.736" x2="301.13" y2="235.304">
   <stop offset="0" style="stop-color:#28166F"/>
   <stop offset="0.341176" style="stop-color:#741C76"/>
   <stop offset="0.580392" style="stop-color:#8C1E78"/>
   <stop offset="1" style="stop-color:#B74F8F"/>
  </linearGradient>
  <linearGradient id="id2" gradientUnits="userSpaceOnUse" xlink:href="#id1" x1="370.89" y1="315.768" x2="370.89" y2="287.546">
  </linearGradient>
  <linearGradient id="id3" gradientUnits="userSpaceOnUse" xlink:href="#id1" x1="357.008" y1="404.339" x2="357.008" y2="261.005">
  </linearGradient>
  <linearGradient id="id4" gradientUnits="userSpaceOnUse" xlink:href="#id1" x1="299.14" y1="376.958" x2="299.14" y2="248.467">
  </linearGradient>
  <linearGradient id="id5" gradientUnits="userSpaceOnUse" x1="299.561" y1="468.636" x2="299.561" y2="359.342">
   <stop offset="0" style="stop-color:#28166F"/>
   <stop offset="0.341176" style="stop-color:#741C76"/>
   <stop offset="0.521569" style="stop-color:#8C1E78"/>
   <stop offset="0.74902" style="stop-color:#AA4489"/>
   <stop offset="1" style="stop-color:#B74F8F"/>
  </linearGradient>
  <linearGradient id="id6" gradientUnits="userSpaceOnUse" xlink:href="#id5" x1="298.721" y1="446.078" x2="298.721" y2="282.22">
  </linearGradient>
  <linearGradient id="id7" gradientUnits="userSpaceOnUse" xlink:href="#id5" x1="230.898" y1="315.768" x2="230.898" y2="287.546">
  </linearGradient>
  <linearGradient id="id8" gradientUnits="userSpaceOnUse" xlink:href="#id5" x1="245.232" y1="404.339" x2="245.232" y2="261.005">
  </linearGradient>
  <linearGradient id="id9" gradientUnits="userSpaceOnUse" xlink:href="#id0" x1="171.828" y1="299.418" x2="171.828" y2="332.922">
  </linearGradient>
  <linearGradient id="id10" gradientUnits="userSpaceOnUse" xlink:href="#id0" x1="180.401" y1="168.935" x2="180.401" y2="213.884">
  </linearGradient>
  <linearGradient id="id11" gradientUnits="userSpaceOnUse" xlink:href="#id0" x1="184.874" y1="226.184" x2="184.874" y2="277.12">
  </linearGradient>
  <linearGradient id="id12" gradientUnits="userSpaceOnUse" xlink:href="#id0" x1="249.358" y1="121.488" x2="249.358" y2="174.192">
  </linearGradient>
  <linearGradient id="id13" gradientUnits="userSpaceOnUse" xlink:href="#id0" x1="233.522" y1="163.427" x2="233.522" y2="236.912">
  </linearGradient>
  <linearGradient id="id14" gradientUnits="userSpaceOnUse" xlink:href="#id0" x1="133.944" y1="247.902" x2="133.944" y2="282.356">
  </linearGradient>
  <linearGradient id="id15" gradientUnits="userSpaceOnUse" xlink:href="#id0" x1="465.38" y1="248.854" x2="465.38" y2="283.31">
  </linearGradient>
  <linearGradient id="id16" gradientUnits="userSpaceOnUse" xlink:href="#id0" x1="414.451" y1="227.136" x2="414.451" y2="278.071">
  </linearGradient>
  <linearGradient id="id17" gradientUnits="userSpaceOnUse" xlink:href="#id0" x1="418.924" y1="169.886" x2="418.924" y2="214.834">
  </linearGradient>
  <linearGradient id="id18" gradientUnits="userSpaceOnUse" xlink:href="#id0" x1="427.498" y1="300.371" x2="427.498" y2="333.875">
  </linearGradient>
  <linearGradient id="id19" gradientUnits="userSpaceOnUse" xlink:href="#id0" x1="365.802" y1="164.378" x2="365.802" y2="237.866">
  </linearGradient>
  <linearGradient id="id20" gradientUnits="userSpaceOnUse" xlink:href="#id0" x1="349.968" y1="122.441" x2="349.968" y2="175.142">
  </linearGradient>
 </defs>
 <g id="Layer_x0020_1">
  <metadata id="CorelCorpID_0Corel-Layer"/>
  <g id="_226863152">
   <path id="_226865216" class="fil0" d="M194.634 499.688l-22.4268 34.5348 -13.3596 -8.676c-5.7948,-3.7632 -9.024,-8.3028 -9.6696,-13.6212 -0.6528,-5.31 0.4908,-10.2276 3.4236,-14.7444 3.354,-5.1648 7.626,-8.358 12.8148,-9.5796 5.1972,-1.2168 10.2624,-0.2232 15.2016,2.9844l14.016 9.102zm-15.756 1.0644l-2.7636 -1.7952c-1.7532,-1.1388 -3.7848,-1.2432 -6.0972,-0.3264 -2.3064,0.9216 -4.4196,2.8512 -6.3204,5.7792 -1.638,2.5224 -2.5044,5.028 -2.6172,7.5468 -0.1128,2.5164 0.8388,4.4364 2.8596,5.7492l2.7636 1.794 12.1752 -18.7476zm-72.3252 -17.4216l18.9408 -19.614c3.5904,-3.7188 7.2768,-5.3256 11.0568,-4.824 3.7812,0.5016 7.4424,2.4612 10.9908,5.8884 3.726,3.5976 5.9664,7.2804 6.7248,11.0316 0.7572,3.7524 -0.5784,7.3872 -3.9828,10.9128l-19.4052 20.0952 -9.2448 -8.9268 18.3756 -19.0284c1.374,-1.4232 2.0712,-2.7372 2.1024,-3.9696 0.0288,-1.2312 -0.6204,-2.4864 -1.932,-3.7524 -1.1028,-1.0656 -2.2284,-1.6956 -3.3828,-1.908 -1.1604,-0.2052 -2.0904,-0.0876 -2.7972,0.3768 -0.72,0.4644 -1.902,1.5552 -3.5616,3.2736l-16.7448 17.34 -7.14 -6.8952zm2.4624 -64.6932l8.0448 11.4888 -9.4536 13.9476 2.286 3.264 12.8964 -9.03 7.2468 10.35 -33.7308 23.6184 -12.3372 -17.6196c-2.718,-3.8808 -3.9216,-7.5384 -3.606,-10.9656 0.3156,-3.426 1.956,-6.1824 4.9416,-8.274 1.9404,-1.3584 3.9384,-2.166 5.9868,-2.4192 2.0388,-0.2472 4.4724,0.426 7.2936,2.034l10.4316 -16.3944zm-6.3444 33.7572l-3.1008 -4.4292c-0.9084,-1.2984 -1.9104,-2.1552 -3.006,-2.5704 -1.098,-0.4008 -2.1756,-0.2364 -3.2304,0.5028 -2.1516,1.506 -2.304,3.5868 -0.45,6.234l3.3432 4.7748 6.444 -4.512zm-32.1624 -61.164l21.0816 -9.3864 2.5176 5.6544c-1.3572,1.1556 -2.4528,2.2416 -3.2676,3.2688 4.0476,0.9936 7.1004,3.7704 9.1392,8.352 2.1576,4.8456 2.2308,9.5916 0.2352,14.2224 -1.9956,4.6308 -5.892,8.2368 -11.6772,10.812 -5.6256,2.5044 -11.0208,3.0936 -16.2036,1.782 -5.1732,-1.314 -9.0948,-4.9572 -11.754,-10.9308 -1.998,-4.4868 -2.4552,-8.6004 -1.3968,-12.3516 1.0584,-3.7512 3.5028,-6.9708 7.3272,-9.6432l6.0852 10.7052c-3.6708,2.2884 -4.8612,4.8804 -3.5748,7.7688 1.6836,3.7812 6.1284,4.068 13.3344,0.8604 4.3452,-1.9356 6.9564,-3.8196 7.7988,-5.6496 0.852,-1.8336 0.8856,-3.6048 0.1152,-5.3364 -0.6204,-1.392 -1.5756,-2.3988 -2.8488,-3.0036 -1.2852,-0.6108 -2.6652,-0.594 -4.1508,0.0444l2.7732 6.2268 -7.9872 3.5556 -7.5468 -16.9512zm12.5088 -37.3284l-7.236 4.3476 2.8572 10.6632 8.4768 0.2856 2.6544 9.9072 -43.068 -1.6356 -3.4596 -12.9108 36.4404 -23.1 3.3348 12.4428zm-13.6164 15.2676l-1.7328 -6.4656 -10.6716 6.3252 12.4044 0.1404zm-6.2916 -43.4904l14.9256 -1.044 0.894 12.7884 -41.0772 2.8728 -1.2276 -17.544c-0.3048,-4.3656 -0.0348,-7.7292 0.8016,-10.0788 0.8472,-2.3508 2.262,-4.2564 4.2336,-5.736 1.9716,-1.4808 4.2372,-2.31 6.804,-2.49 3.9132,-0.2736 7.1736,0.8724 9.7668,3.426 2.6064,2.5632 4.0632,6.126 4.3812,10.6776l0.498 7.128zm-8.8104 0.8016l-0.294 -4.212c-0.2604,-3.7176 -1.746,-5.472 -4.4796,-5.2812 -2.5668,0.18 -3.7308,1.9848 -3.4908,5.4156l0.324 4.6332 7.9404 -0.5556zm-15.822 -65.448l27.1632 2.376c5.1492,0.45 8.718,2.3028 10.7076,5.5572 1.9896,3.2544 2.7696,7.3332 2.34,12.2472 -0.4512,5.16 -1.9032,9.2184 -4.3416,12.168 -2.4396,2.9496 -6.1044,4.2 -10.9872,3.7728l-27.8292 -2.4348 1.1196 -12.8016 26.352 2.3052c1.9704,0.1728 3.4308,-0.1128 4.4076,-0.864 0.9756,-0.7524 1.5432,-2.0472 1.7016,-3.8628 0.1332,-1.5276 -0.0852,-2.7984 -0.6468,-3.8292 -0.5712,-1.032 -1.248,-1.68 -2.0532,-1.9368 -0.8136,-0.2676 -2.406,-0.5004 -4.7844,-0.708l-24.0144 -2.1012 0.8652 -9.888zm52.5864 -38.4072l-3.8652 13.482 -16.7892 1.4304 -1.098 3.8316 15.1344 4.3392 -3.4824 12.1452 -39.5832 -11.3496 5.9292 -20.6772c1.3056,-4.554 3.39,-7.7916 6.252,-9.702 2.8608,-1.9116 6.036,-2.3712 9.54,-1.3668 2.2764,0.6528 4.1628,1.6968 5.6472,3.1296 1.476,1.4292 2.484,3.744 3.0108,6.948l19.3044 -2.2104zm-30.2256 16.314l1.4892 -5.1972c0.4368,-1.524 0.4728,-2.8416 0.1068,-3.954 -0.3792,-1.1052 -1.1868,-1.8396 -2.424,-2.1948 -2.5236,-0.7236 -4.2372,0.4668 -5.1288,3.5748l-1.6056 5.6028 7.5624 2.1684zm20.5008 -85.2396l23.6136 13.6332c4.4772,2.5848 6.9276,5.772 7.356,9.5628 0.4272,3.7896 -0.5892,7.8156 -3.0552,12.0876 -2.5896,4.4856 -5.6208,7.5504 -9.0768,9.1944 -3.4584,1.6416 -7.308,1.2264 -11.5524,-1.224l-24.1932 -13.968 6.4248 -11.13 22.9092 13.2264c1.7124,0.9888 3.1572,1.3476 4.3596,1.0788 1.2024,-0.2688 2.2632,-1.2024 3.1752,-2.7804 0.7668,-1.3284 1.1052,-2.5728 1.032,-3.744 -0.0816,-1.1772 -0.4212,-2.0508 -1.0428,-2.6232 -0.624,-0.5868 -1.9692,-1.47 -4.0368,-2.664l-20.8764 -12.0528 4.9632 -8.5968zm39.9024 15.3108l-31.0776 -27.0156 10.4508 -12.0228c4.5324,-5.214 9.4776,-7.7796 14.8344,-7.6788 5.3496,0.0924 10.0596,1.9092 14.1252,5.442 4.6464,4.0392 7.2144,8.7144 7.7028,14.0232 0.48,5.316 -1.2072,10.194 -5.0712,14.6388l-10.9644 12.6132zm1.1388 -15.7512l2.1624 -2.4876c1.3716,-1.5768 1.7568,-3.5748 1.1724,-5.9928 -0.5928,-2.4108 -2.2092,-4.7724 -4.8444,-7.0632 -2.2692,-1.9728 -4.6308,-3.18 -7.1088,-3.642 -2.4768,-0.4608 -4.5096,0.2136 -6.0912,2.0328l-2.1612 2.4864 16.8708 14.6664zm27.0864 -15.8772l-25.3512 -32.448 12.5532 -9.8076c5.4432,-4.254 10.7868,-5.8284 16.026,-4.7088 5.2332,1.1124 9.5112,3.7944 12.8268,8.0388 3.7908,4.8516 5.4204,9.93 4.8864,15.234 -0.5436,5.3112 -3.1308,9.7764 -7.7712,13.4028l-13.17 10.2888zm4.1232 -15.2448l2.5968 -2.028c1.6476,-1.2876 2.4072,-3.174 2.2944,-5.6592 -0.1212,-2.4804 -1.2576,-5.1072 -3.4068,-7.8576 -1.8516,-2.37 -3.9396,-4.0056 -6.2832,-4.932 -2.3436,-0.9252 -4.4688,-0.6504 -6.3672,0.8328l-2.5968 2.0292 13.7628 17.6148zm45.7032 -17.6316c-5.1564,2.6268 -10.242,3.0564 -15.2328,1.29 -5.0016,-1.7628 -8.958,-5.514 -11.88,-11.2488 -2.796,-5.4864 -3.5496,-10.7988 -2.2632,-15.9624 1.2876,-5.1624 4.6884,-9.1488 10.212,-11.9628 5.1096,-2.604 10.1268,-3.0348 15.0624,-1.3068 4.9272,1.7304 8.8368,5.412 11.7024,11.0364 2.9688,5.826 3.7188,11.3136 2.262,16.4832 -1.4484,5.1636 -4.734,9.0576 -9.8628,11.6712zm-4.3056 -8.3124c1.9008,-0.9672 2.8464,-2.4888 2.8344,-4.5768 -0.006,-2.076 -1.14,-5.3232 -3.384,-9.7272 -3.2544,-6.3864 -6.582,-8.7 -10.0044,-6.9552 -3.6984,1.8828 -3.6912,6.456 0.0156,13.7316 3.4788,6.8268 6.9972,9.3324 10.5384,7.5276zm44.3508 -51.2988l-4.914 26.5632 5.3868 16.5804 -11.6724 3.7932 -5.388 -16.5804 -20.5104 -18.3024 13.1736 -4.2804 11.0388 10.6512 2.3868 -15.0132 10.4988 -3.4116zm34.5804 36.5076l-3.2988 -7.77 -10.956 1.3452 -1.464 8.3544 -10.1796 1.2504 7.614 -42.4224 13.266 -1.6284 17.8044 39.3012 -12.786 1.5696zm-13.2252 -15.6084l6.6444 -0.816 -4.7784 -11.4468 -1.866 12.2628zm64.77 -8.5176l-0.4032 23.0736 -6.1884 -0.108c-0.474,-1.7184 -0.9948,-3.1692 -1.5816,-4.3428 -2.6112,3.2484 -6.4176,4.8408 -11.4324,4.7532 -5.3028,-0.0924 -9.6348,-2.0316 -12.9888,-5.7972 -3.354,-3.7668 -4.974,-8.8212 -4.8636,-15.1524 0.1068,-6.1572 1.854,-11.2956 5.2332,-15.4392 3.3768,-4.1328 8.3352,-6.1464 14.8728,-6.0324 4.9116,0.0852 8.8332,1.4088 11.7852,3.954 2.9532,2.544 4.8372,6.12 5.6424,10.716l-12.2736 0.9912c-0.522,-4.2936 -2.3688,-6.4692 -5.5296,-6.5244 -4.1388,-0.072 -6.2772,3.8364 -6.4152,11.7228 -0.0828,4.7556 0.522,7.9176 1.824,9.4548 1.302,1.5468 2.8932,2.3268 4.788,2.3592 1.524,0.0264 2.8404,-0.414 3.9264,-1.3116 1.0968,-0.9072 1.6644,-2.1648 1.7136,-3.78l-6.8148 -0.12 0.1524 -8.7396 18.5532 0.3228zm99.2184 10.5144l-24.948 34.5312 -9.9108 -3.8052 2.7576 -23.2728 -13.2072 19.2624 -10.3344 -3.9672 4.5288 -42.3696 11.0928 4.2588 -3.1248 24.234 13.7484 -20.1564 9.2952 3.5688 -2.8272 24.348 13.8924 -20.1012 9.0372 3.4692zm19.5312 50.274l-5.2116 8.34 -26.2668 -16.4136 21.8208 -34.9212 26.2668 16.4136 -5.0364 8.0604 -15.7536 -9.8448 -3.1644 5.0652 12.7404 7.962 -4.8456 7.7544 -12.7404 -7.962 -3.5628 5.7024 15.7536 9.8436zm25.9104 24.5388l-6.8892 7.3884 -21.1092 -19.6836 28.0836 -30.1164 9.2412 8.6172 -21.1944 22.728 11.868 11.0664zm24.4296 21.2028l-8.4504 -10.4352 -11.9796 9.7008 -7.7436 -9.5616 32.0016 -25.9152 18.7332 23.1348 -7.6176 6.1692 -10.9908 -13.572 -5.2092 4.2192 8.4504 10.4352 -7.194 5.8248zm2.7156 34.4076l5.8644 -6.072 -5.52 -9.5604 -8.262 1.9176 -5.1288 -8.8824 42.0252 -9.5676 6.6828 11.5752 -29.22 31.746 -6.4416 -11.1564zm9.2004 -18.2724l3.3468 5.7972 8.6712 -8.8704 -12.018 3.0732zm10.3728 67.5192l-4.566 -13.2612 12.9312 -10.8012 -1.2972 -3.768 -14.886 5.1252 -4.1136 -11.946 38.9352 -13.4064 7.002 20.3376c1.5432,4.4796 1.692,8.3268 0.444,11.5344 -1.248,3.2064 -3.5844,5.4036 -7.0308,6.5916 -2.2404,0.7704 -4.3836,0.9972 -6.4224,0.6744 -2.028,-0.324 -4.1808,-1.6416 -6.45,-3.9648l-14.5464 12.8844zm15.4032 -30.7008l1.7604 5.112c0.516,1.4988 1.242,2.5992 2.1804,3.3 0.9444,0.6876 2.0268,0.8256 3.2448,0.4068 2.4828,-0.8544 3.2028,-2.8128 2.1504,-5.8692l-1.8972 -5.5104 -7.4388 2.5608zm1.3368 65.4828l-9.654 1.8768 -5.91 -30.4044 40.422 -7.8576 5.91 30.4044 -9.33 1.8132 -3.5436 -18.234 -5.8632 1.1388 2.8668 14.748 -8.976 1.7448 -2.8668 -14.748 -6.6 1.2828 3.5448 18.2352zm2.0136 18.7812l1.2876 11.8476c-3.3768,0.7536 -5.2068,3.1656 -5.4912,7.2324 -0.222,3.1752 0.51,4.8156 2.1948,4.9332 0.8832,0.0612 1.5972,-0.2496 2.1408,-0.9552 0.5436,-0.6936 1.068,-1.9692 1.5792,-3.8328 1.8912,-7.1028 4.0212,-11.598 6.3828,-13.488 2.3724,-1.8984 5.064,-2.7324 8.0736,-2.5224 3.8724,0.2712 6.9948,1.9656 9.3588,5.0832 2.3616,3.1176 3.3492,7.4388 2.9628,12.9552 -0.5844,8.3616 -4.3392,13.6524 -11.2452,15.8748l-2.4336 -10.668c2.8284,-0.8868 4.3596,-2.9892 4.59,-6.2964 0.1932,-2.7528 -0.564,-4.1892 -2.2692,-4.308 -0.7596,-0.0528 -1.3788,0.2232 -1.8432,0.81 -0.4632,0.5976 -0.9492,1.7712 -1.4544,3.5316 -1.3908,4.8372 -2.5584,8.2644 -3.5052,10.2732 -0.9468,2.0196 -2.4324,3.6492 -4.4712,4.89 -2.0268,1.2528 -4.356,1.7808 -6.9852,1.596 -4.1508,-0.2904 -7.4016,-2.2092 -9.7452,-5.7588 -2.3424,-3.5496 -3.3264,-8.0676 -2.9436,-13.542 0.6996,-10.0056 5.3124,-15.8976 13.8168,-17.6556zm-20.0904 58.0068c1.4976,-5.5908 4.5816,-9.6564 9.234,-12.1836 4.6572,-2.5368 10.092,-2.9676 16.308,-1.302 5.9484,1.5936 10.4016,4.5888 13.3776,9 2.9748,4.4112 3.6612,9.6048 2.0568,15.5928 -1.4844,5.5392 -4.5204,9.5568 -9.1068,12.0684 -4.584,2.5032 -9.936,2.9448 -16.0332,1.3116 -6.3156,-1.692 -10.896,-4.8072 -13.7628,-9.348 -2.868,-4.5324 -3.5628,-9.5784 -2.0736,-15.1392zm9.0576 2.3628c-0.552,2.0592 -0.054,3.78 1.5048,5.1684 1.5468,1.3848 4.7184,2.7144 9.4932,3.9936 6.9228,1.8552 10.8696,0.93 11.8644,-2.7804 1.074,-4.008 -2.3292,-7.0632 -10.2156,-9.1764 -7.4016,-1.9836 -11.6184,-1.0452 -12.6468,2.7948zm-10.9032 48.9084l-5.3292 10.2744c-4.3872,-2.5512 -7.1664,-5.8284 -8.3328,-9.8424 -1.17,-4.0044 -0.8112,-8.1276 1.0812,-12.3792 2.2752,-5.1084 5.8032,-8.4744 10.5876,-10.1076 4.776,-1.6392 10.1412,-1.1328 16.0956,1.5192 5.8992,2.6256 9.9972,6.2316 12.282,10.8216 2.298,4.584 2.2656,9.5412 -0.1092,14.8752 -2.2152,4.9752 -5.3028,8.19 -9.2484,9.6336 -3.9456,1.4448 -8.2788,1.3296 -12.9876,-0.3492l4.2264 -11.0364c2.5116,1.1184 4.5408,1.4472 6.0972,0.99 1.5504,-0.4704 2.6124,-1.362 3.1896,-2.6592 1.6212,-3.6408 -1.2204,-7.0812 -8.538,-10.3392 -4.0932,-1.8228 -7.0872,-2.592 -8.9772,-2.2944 -1.896,0.2832 -3.2196,1.2828 -3.9816,2.994 -1.3572,3.048 -0.0408,5.6856 3.9444,7.8996zm5.868 39.8124l-34.9212 -21.8208 6.696 -10.7148 34.9212 21.8208 -6.696 10.7148zm-51.4584 14.5164l-7.5336 -6.3204 19.9092 -23.7276 31.5444 26.4696 -19.9092 23.7264 -7.2804 -6.1092 11.94 -14.2296 -4.5756 -3.8388 -9.6564 11.508 -7.0056 -5.8776 9.6576 -11.5092 -5.1504 -4.3212 -11.94 14.2296zm-2.9556 32.0916l-20.544 -23.6328 9.0372 -7.8564 20.544 23.6328 6.4428 -5.6004 6.4716 7.4448 -21.924 19.0572 -6.4704 -7.4448 6.4428 -5.6004zm-38.0172 38.4036l-2.1288 -26.9292 -9.4944 -14.6208 10.2936 -6.6852 9.4944 14.6208 24.5484 12.3708 -11.616 7.5432 -13.4196 -7.4304 1.5804 15.1188 -9.258 6.012z"/>
   <g>
    <path id="_226865144" class="fil1" d="M193.832 342.073c52.3656,-9.4116 87.2076,10.386 102.799,62.2656 -4.9968,-63.7032 -19.38,-114.179 -48.8928,-143.335 0,0 23.388,52.1376 -5.4324,61.4292 -26.7444,8.358 -38.4456,9.1932 -48.474,19.6404z"/>
    <path id="_226865072" class="fil2" d="M230.898 287.546c7.7928,0 14.1108,6.3192 14.1108,14.1108 0,7.7928 -6.318,14.1108 -14.1108,14.1108 -7.7916,0 -14.1108,-6.318 -14.1108,-14.1108 0,-7.7916 6.3192,-14.1108 14.1108,-14.1108z"/>
   </g>
   <g>
    <path id="_226864976" class="fil3" d="M246.067 248.467c30.3432,36.5244 48.1656,81.96 55.1616,128.491 9.0888,-47.442 24.1464,-90.678 50.982,-127.237 -6.0252,-0.1548 -22.7376,20.5536 -37.5996,29.1432 -9.4092,5.4384 -19.4328,3.9516 -28.6068,-1.3044 -13.5744,-7.7772 -28.5072,-23.4912 -39.9372,-29.0928z"/>
    <path id="_226864904" class="fil4" d="M301.13 235.304c9.2304,0 16.716,7.4856 16.716,16.716 0,9.2316 -7.4856,16.7172 -16.716,16.7172 -9.2304,0 -16.716,-7.4856 -16.716,-16.7172 0,-9.2304 7.4856,-16.716 16.716,-16.716z"/>
   </g>
   <g>
    <path id="_226864808" class="fil5" d="M370.89 287.546c7.7916,0 14.1108,6.3192 14.1108,14.1108 0,7.7928 -6.3192,14.1108 -14.1108,14.1108 -7.7928,0 -14.112,-6.318 -14.112,-14.1108 0,-7.7916 6.3192,-14.1108 14.112,-14.1108z"/>
    <path id="_226864736" class="fil6" d="M408.409 342.073c-52.3668,-9.4116 -87.2076,10.386 -102.8,62.2656 4.9968,-63.7032 19.38,-114.179 48.8928,-143.335 0,0 -23.3868,52.1376 5.4324,61.4292 26.7444,8.358 38.4456,9.1932 48.4752,19.6404z"/>
   </g>
   <g>
    <path id="_226864640" class="fil7" d="M485.742 282.22c0.3996,4.0344 0.6096,8.1096 0.6096,12.2256 0,83.73 -84.0228,151.633 -187.631,151.633 -103.607,0 -187.63,-67.9032 -187.63,-151.633 0,-4.116 0.21,-8.1912 0.6084,-12.2256 7.7064,78.0144 88.5072,136.552 187.021,136.552 98.5152,0 179.315,-58.5372 187.021,-136.552z"/>
    <path id="_226864568" class="fil8" d="M475.49 363.286c-10.1664,54.7644 -88.0008,105.35 -175.516,105.35 -87.516,0 -168.436,-54.108 -176.345,-109.294 21.444,47.544 91.434,93.6744 176.345,93.6744 84.9108,0 155.114,-44.6892 175.516,-89.7312z"/>
   </g>
   <g>
    <path id="_226864472" class="fil9" d="M300.392 125.191c0,0 -53.682,52.0992 -5.0496,95.6988l5.0496 -55.164 6.132 54.414c0.858,-0.2628 1.6284,-0.6588 2.2728,-1.2648 43.9392,-41.2872 -6.888,-93.9588 -8.4048,-93.684z"/>
    <path id="_226864400" class="fil10" d="M211.64 163.446c0,0 -18.9528,60.6348 35.01,73.4664l-18.5844 -43.2156 26.6256 38.1264c0.534,-0.5448 0.948,-1.1532 1.1844,-1.866 16.062,-48.618 -43.2156,-67.332 -44.2356,-66.5112z"/>
    <path id="_226864328" class="fil11" d="M148.867 228.914c0,0 14.5224,61.8456 67.5108,45.4464l-37.9812 -27.7548 42.3156 19.2828c0.1824,-0.7404 0.2304,-1.4736 0.0708,-2.208 -10.8996,-50.0292 -71.454,-35.9916 -71.916,-34.7664z"/>
    <path id="_226864256" class="fil12" d="M140.947 314.472c0,0 31.794,36.6168 61.7604,6.7044l-35.5236 -5.2488 35.4396 -2.0148c-0.1392,-0.5652 -0.3684,-1.0788 -0.7368,-1.5168 -25.1472,-29.9232 -61.0632,1.0848 -60.9396,2.076z"/>
    <path id="_226864184" class="fil13" d="M233.665 121.502c0,0 -13.5924,43.4832 25.1064,52.686l-13.3272 -30.9912 19.0932 27.3408c0.3828,-0.39 0.6804,-0.8256 0.8496,-1.3368 11.5188,-34.8672 -30.9912,-48.2868 -31.722,-47.6988z"/>
    <path id="_226864112" class="fil14" d="M159.1 169.034c0,0 -2.424,45.4944 37.3476,44.8476l-20.5728 -26.736 25.2588 21.774c0.2748,-0.4728 0.4548,-0.9684 0.492,-1.506 2.5452,-36.6312 -41.9616,-39.1296 -42.5256,-38.3796z"/>
    <path id="_226864040" class="fil15" d="M106.847 251.821c0,0 15.294,42.9144 51.7452,26.9904l-29.2872 -16.7436 31.6992 10.3596c0.0708,-0.5424 0.0468,-1.0692 -0.126,-1.5792 -11.7684,-34.7832 -53.8008,-19.9368 -54.0312,-19.0272z"/>
    <path id="_226863968" class="fil16" d="M387.684 164.398c0,0 18.9528,60.6348 -35.01,73.4664l18.5844 -43.2156 -26.6244 38.1264c-0.534,-0.5448 -0.9492,-1.152 -1.1844,-1.8648 -16.062,-48.6192 43.2144,-67.332 44.2344,-66.5124z"/>
    <path id="_226863896" class="fil17" d="M450.457 229.866c0,0 -14.5224,61.8456 -67.5096,45.4476l37.9812 -27.756 -42.3156 19.284c-0.1836,-0.7416 -0.2304,-1.4748 -0.0708,-2.2092 10.8996,-50.0292 71.454,-35.9916 71.9148,-34.7664z"/>
    <path id="_226863824" class="fil18" d="M458.378 315.424c0,0 -31.794,36.6168 -61.7604,6.7044l35.5236 -5.2488 -35.4396 -2.0148c0.1392,-0.5652 0.3684,-1.0776 0.7368,-1.5168 25.146,-29.922 61.0632,1.0848 60.9396,2.076z"/>
    <path id="_226863752" class="fil19" d="M365.66 122.454c0,0 13.5912,43.4844 -25.1064,52.686l13.3272 -30.9912 -19.0944 27.342c-0.3828,-0.3912 -0.6792,-0.8268 -0.8484,-1.338 -11.5188,-34.866 30.99,-48.2856 31.722,-47.6988z"/>
    <path id="_226863680" class="fil20" d="M440.226 169.987c0,0 2.424,45.4932 -37.3488,44.8464l20.5728 -26.736 -25.2576 21.774c-0.2748,-0.4728 -0.4548,-0.9684 -0.492,-1.506 -2.5452,-36.6312 41.9616,-39.1296 42.5256,-38.3784z"/>
    <path id="_226863608" class="fil21" d="M492.479 252.773c0,0 -15.2952,42.9144 -51.7464,26.9904l29.2872 -16.7424 -31.698 10.3584c-0.072,-0.5424 -0.0468,-1.0692 0.126,-1.5792 11.7684,-34.7832 53.8008,-19.9368 54.0312,-19.0272z"/>
   </g>
   <path id="_226863512" class="fil22" d="M298.721 519.691c11.6472,0 21.0948,9.4476 21.0948,21.0948 0,11.6472 -9.4476,21.0948 -21.0948,21.0948 -11.6472,0 -21.0948,-9.4476 -21.0948,-21.0948 0,-11.6472 9.4476,-21.0948 21.0948,-21.0948z"/>
   <path id="_226863440" class="fil22" d="M253.969 524.749c8.0136,0 14.5128,6.4992 14.5128,14.5128 0,8.0136 -6.4992,14.5128 -14.5128,14.5128 -8.0136,0 -14.5128,-6.4992 -14.5128,-14.5128 0,-8.0136 6.4992,-14.5128 14.5128,-14.5128z"/>
   <path id="_226863368" class="fil22" d="M223.102 519.954c6.0948,0 11.0376,4.9428 11.0376,11.0376 0,6.0948 -4.9428,11.0376 -11.0376,11.0376 -6.0948,0 -11.0376,-4.9428 -11.0376,-11.0376 0,-6.0948 4.9428,-11.0376 11.0376,-11.0376z"/>
   <path id="_226863296" class="fil22" d="M349.658 524.749c-8.0136,0 -14.5128,6.4992 -14.5128,14.5128 0,8.0136 6.4992,14.5128 14.5128,14.5128 8.0136,0 14.5128,-6.4992 14.5128,-14.5128 0,-8.0136 -6.4992,-14.5128 -14.5128,-14.5128z"/>
   <path id="_226863224" class="fil22" d="M380.526 519.954c-6.0948,0 -11.0376,4.9428 -11.0376,11.0376 0,6.0948 4.9428,11.0376 11.0376,11.0376 6.0948,0 11.0376,-4.9428 11.0376,-11.0376 0,-6.0948 -4.9428,-11.0376 -11.0376,-11.0376z"/>
  </g>
 </g>
</svg>
